<?xml version="1.0" encoding="UTF-8"?>
<svg version="1.1" viewBox="0 0 2048 1649" width="2304" height="1856" xmlns="http://www.w3.org/2000/svg">

  <!-- House outline -->
  <path transform="translate(435,511)" fill="#59AA62"
    d="m0 0 5 2 13 10 18 14 17 14 14 11 16 13 13 10 16 13 14 11 11 9 16 13 14 11 11 9 16 13 4 3-1 3-11 9-4 4-4-1-14-11-22-18-14-11-16-13-14-11-16-13-25-20-14-11-17-14-14-11-10-8-5 3-14 11-13 11-13 10-17 14-9 7-16 13-35 28h-2v-67h-44v100l-3 6-10 9-9 7-13 11-13 10-16 13-14 11-14 12-1 1v5l1 1 60 1 1 223 3 4 9 1h50v-119l3-8 9-8 3-1h96l6 4 5 6 2 5v121l207-1 4-4 1-160 11-16 11-15h2v193l-4 11-7 9-10 6-9 2-229-1v-136h-77l-1 137h-61l-23-1-12-5-7-6-6-12-1-5v-201h-41l-10-4-5-5-5-7-2-10 2-12 6-9 9-8 14-11 11-9 16-13 14-11 13-11 10-8 1-105 3-6 5-4 3-1h69l7 4 3 6v32l16-12 17-14 14-11 16-13 28-22z"/>

  <!-- Checkmark — compound path: outer tick minus inner white stripe -->
  <path transform="translate(760,621)" fill="#59AA62" fill-rule="evenodd"
    d="m0 0 3 1 8 17v3l-13 10-13 11-20 18-15 15-1 2h-2l-2 4-11 11-9 11-9 10-22 28-10 13-9 13-13 19-10 15-14 22-17 28-26 46-7 12-3-1-12-16-11-13-10-13-13-15-12-14-12-13-7-8-42-42 1-4 8-8 7-8 28-30 9 6 15 12 14 11 13 11 13 10 4 2 10-13 11-14 11-13 22-24 20-20 8-7 15-13 11-9 18-14 18-12 19-11 23-12 27-11z
    M-71,60 l2 1-11 12-9 10-12 14-14 17-12 16-26 36-19 29-12 19-17 28-11 19-4 6-5-5-12-14-8-10-10-11-9-11-10-10-7-8-17-17v-2l-4-2-3-4 2-5 12-12 6 4 16 13 11 9 14 12 13 11 9 6 2-5 10-13 8-11 9-11 11-13 9-11 16-17 20-20 8-7 11-10 14-11 15-12z"/>

  <!-- L -->
  <path transform="translate(826,737)" fill="#3e4c59"
    d="m0 0 2 1v142h74v32h-108l-1-1v-160z"/>

  <!-- e — compound path with inner aperture cut out -->
  <path transform="translate(969,781)" fill="#3e4c59" fill-rule="evenodd"
    d="m0 0h12l16 3 14 7 10 9 7 10 4 8 4 17v22l-10 1h-79l1 8 4 8 5 5 8 5 4 1h14l8-3 6-5 4-7 9 1 22 6 2 2-7 13-7 8-10 7-11 5-13 3h-19l-14-3-14-7-11-9-8-11-5-11-3-11-1-7v-15l3-16 5-13 8-11 11-10 15-7 7-2z
    M3,27 l12 1 8 4 5 6 4 9 1 5-1 1h-54l-1-2 4-10 4-6 9-6z"/>

  <!-- t -->
  <path transform="translate(1097,744)" fill="#3e4c59"
    d="m0 0h2v40h36v26h-36l1 62 3 7 5 4 3 1h18l6-1 1 2v25l-3 2-12 2h-14l-14-2-10-4-9-7-6-9-2-6-1-7v-69h-21v-26h21v-28l9-4z"/>

  <!-- S -->
  <path transform="translate(1206,736)" fill="#3e4c59"
    d="m0 0h21l14 3 12 5 11 7 8 8 6 10 5 13-1 4-30 8h-2l-7-14-4-5-8-5-7-2h-16l-11 4-5 4-2 4v11l3 5 14 7 38 11 15 6 10 7 5 5 6 8 4 13v17l-4 13-7 11-10 9-16 8-20 4h-18l-17-3-12-5-10-6-7-6-8-10-6-12-3-11 1-3 32-6 3 1 3 9 5 8 9 8 11 4 11 1 12-2 10-6 4-7v-11l-4-6-8-5-15-5-28-8-16-7-9-6-5-5-4-5-4-8-2-10v-10l3-14 5-9 9-10 9-6 16-6z"/>

  <!-- o — compound path with inner circle cut out -->
  <path transform="translate(1358,781)" fill="#3e4c59" fill-rule="evenodd"
    d="m0 0h11l16 3 16 8 10 9 6 7 6 12 4 15 1 8v11l-2 14-5 13-7 11-8 9-11 7-9 4-16 3h-13l-16-3-16-8-10-9-8-11-6-14-2-10v-23l4-16 7-14 11-12 11-7 13-5z
    M0,30 h10l9 3 10 9 5 12 1 5v16l-3 11-5 8-7 7-7 3h-16l-8-4-7-7-5-11-2-9v-12l3-13 6-9 7-6z"/>

  <!-- r -->
  <path transform="translate(1507,783)" fill="#3e4c59"
    d="m0 0h14l1 1v29l-1 1-17 1-10 4-6 5-4 8-2 7-1 19v53l-1 1h-32l-1-1v-127h29l2 18 7-8 7-6 10-4z"/>

  <!-- t -->
  <path transform="translate(1581,744)" fill="#3e4c59"
    d="m0 0h3v40h35v26h-35l1 63 3 6 5 4 3 1h17l7-1v27l-3 2-14 2h-12l-16-3-10-5-8-7-5-10-2-10v-69h-21l-1-1v-24l3-2h18l1-27 12-5z"/>

  <!-- e — compound path with inner aperture cut out -->
  <path transform="translate(1688,781)" fill="#3e4c59" fill-rule="evenodd"
    d="m0 0h13l15 3 14 7 10 9 7 11 5 12 2 8 1 9v16l-5 2h-85l5 14 8 9 10 4h13l10-4 8-9 2-3 16 4 15 5-2 6-6 10-8 8-13 8-13 4-6 1h-16l-16-3-14-7-12-11-7-10-5-11-3-12-1-8v-10l3-17 5-12 6-10 11-11 14-8 11-3z
    M3,27 l12 1 8 4 5 6 4 10 1 4-1 1h-54l1-7 5-9 7-6 7-3z"/>

  <!-- d — compound path with inner counter cut out -->
  <path transform="translate(1891,729)" fill="#3e4c59" fill-rule="evenodd"
    d="m0 0h3v183h-29l-2-12-9 8-10 5-10 2h-12l-14-3-10-5-8-6-7-7-6-10-5-12-2-11v-26l4-16 6-12 9-11 8-6 14-7 12-2h10l11 2 10 4 5 4 1-49 8-4z
    M-65,82 h15l8 4 5 5 4 6 3 10 1 7v10l-3 14-4 8-7 7-6 3-4 1h-9l-11-4-7-7-5-10-2-10v-14l3-12 5-9 7-6z"/>

</svg>
