<svg xmlns="http://www.w3.org/2000/svg" version="1.1" viewBox="0 0 640 640">

  <!-- House outline -->
  <path transform="translate(295,61)" fill="#59AA62" d="m0 0 5 2 13 10 18 14 17 14 14 11 16 13 13 10 16 13 14 11 11 9 16 13 14 11 11 9 16 13 4 3-1 3-11 9-4 4-4-1-14-11-22-18-14-11-16-13-14-11-16-13-25-20-14-11-17-14-14-11-10-8-5 3-14 11-13 11-13 10-17 14-9 7-16 13-35 28h-2v-67h-44v100l-3 6-10 9-9 7-13 11-13 10-16 13-14 11-14 12-1 1v5l1 1 60 1 1 223 3 4 9 1h50v-119l3-8 9-8 3-1h96l6 4 5 6 2 5v121l207-1 4-4 1-160 11-16 11-15h2v193l-4 11-7 9-10 6-9 2-229-1v-136h-77l-1 137h-61l-23-1-12-5-7-6-6-12-1-5v-201h-41l-10-4-5-5-5-7-2-10 2-12 6-9 9-8 14-11 11-9 16-13 14-11 13-11 10-8 1-105 3-6 5-4 3-1h69l7 4 3 6v32l16-12 17-14 14-11 16-13 28-22z"/>

  <!-- Checkmark -->
  <path transform="translate(620,181)" fill="#59AA62" fill-rule="evenodd" d="m0 0 3 1 8 17v3l-13 10-13 11-20 18-15 15-1 2h-2l-2 4-11 11-9 11-9 10-22 28-10 13-9 13-13 19-10 15-14 22-17 28-26 46-7 12-3-1-12-16-11-13-10-13-13-15-12-14-12-13-7-8-42-42 1-4 8-8 7-8 28-30 9 6 15 12 14 11 13 11 13 10 4 2 10-13 11-14 11-13 22-24 20-20 8-7 15-13 11-9 18-14 18-12 19-11 23-12 27-11z     M-71,60 l2 1-11 12-9 10-12 14-14 17-12 16-26 36-19 29-12 19-17 28-11 19-4 6-5-5-12-14-8-10-10-11-9-11-10-10-7-8-17-17v-2l-4-2-3-4 2-5 12-12 6 4 16 13 11 9 14 12 13 11 9 6 2-5 10-13 8-11 9-11 11-13 9-11 16-17 20-20 8-7 11-10 14-11 15-12z"/>

</svg>
